<!-- icon666.com - MILLIONS vector ICONS FREE --><svg viewBox="0 0 64 64" xmlns="http://www.w3.org/2000/svg"><g id="Layer_37" data-name="Layer 37"><path d="m61.18 20.93a1.5 1.5 0 0 0 -2.36-1.86c-.12.16-12.28 15.43-26.82 15.43s-26.7-15.27-26.82-15.43a1.51 1.51 0 0 0 -2.11-.25c-2.14 1.57 2.53 5.3 7.32 9.67l-4.2 4.2a1.51 1.51 0 0 0 1.06 2.56c.88.31 4.87-4.46 5.53-4.9 4.75 3.48 10.89 6.68 17.72 7.1v6.55a1.5 1.5 0 0 0 3 0v-6.55c6.83-.42 13-3.62 17.72-7.1.69.47 4.64 5.2 5.53 4.9a1.51 1.51 0 0 0 1.06-2.56l-4.2-4.2a53.47 53.47 0 0 0 7.57-7.56z" fill="#000000" style="fill: rgb(255, 255, 255);"></path></g></svg>