<?xml version="1.0" encoding="windows-1252"?>
<!-- Generator: Adobe Illustrator 19.0.0, SVG Export Plug-In . SVG Version: 6.00 Build 0)  -->
<svg version="1.1" width='25px' height='25px' id="Capa_1" xmlns="http://www.w3.org/2000/svg" xmlns:xlink="http://www.w3.org/1999/xlink" x="0px" y="0px" viewBox="0 0 512 512" style="enable-background:new 0 0 512 512;" xml:space="preserve">
<linearGradient id="SVGID_1_" gradientUnits="userSpaceOnUse" x1="-33.2534" y1="643.6986" x2="-12.6851" y2="623.1304" gradientTransform="matrix(21.3333 0 0 -21.3333 779.4987 13791.667)">
	<stop offset="0" style="stop-color:#369CDC"/>
	<stop offset="1" style="stop-color:#AA56D0"/>
</linearGradient>
<path style="fill:url(#SVGID_1_);" d="M213.331,405.333c45.483,0,88.555-15.019,123.861-42.389l145.92,145.92  c2.091,2.091,4.821,3.136,7.552,3.136c2.731,0,5.461-1.045,7.552-3.115c4.16-4.16,4.16-10.923,0-15.083L353.427,349.013  c1.067-1.024,2.219-1.92,3.285-2.965c38.229-38.272,59.285-89.195,59.285-143.381C415.997,90.923,325.075,0,213.331,0  S10.664,90.923,10.664,202.667S101.587,405.333,213.331,405.333z M213.331,21.333c99.989,0,181.333,81.344,181.333,181.333  c0,48.491-18.837,94.059-53.056,128.277S261.821,384,213.331,384c-99.989,0-181.333-81.344-181.333-181.333  S113.341,21.333,213.331,21.333z"/>
<g>
</g>
<g>
</g>
<g>
</g>
<g>
</g>
<g>
</g>
<g>
</g>
<g>
</g>
<g>
</g>
<g>
</g>
<g>
</g>
<g>
</g>
<g>
</g>
<g>
</g>
<g>
</g>
<g>
</g>
</svg>